<svg width="22" height="22" viewBox="0 0 22 22" fill="none" xmlns="http://www.w3.org/2000/svg">
<path d="M11.8442 14.4492V18.3828L11.8452 18.3837L18.4575 13.9785V13.9775L15.5034 12.0038L11.8442 14.4492ZM3.54443 13.9794L3.54248 13.9785L10.1548 18.3837L10.1558 18.3828V14.4501V14.4492L6.49756 12.0038H6.49658L3.54248 13.9775L3.54443 13.9794ZM17.0229 10.9902L19.1343 12.4023L19.1353 12.4013V9.57806H19.1343L17.0229 10.9902ZM2.86475 12.4042L2.86572 12.4052L4.97705 10.9931V10.9921L2.86572 9.58002V9.58099L2.86475 9.58197V12.4042ZM8.01416 10.9931L10.9995 12.9872H11.0005L13.9858 10.9902L11.0005 8.99603V8.99506L10.9995 8.99603L9.52881 9.97943L8.01416 10.9921V10.9931ZM3.54443 8.0058L3.54248 8.00482L6.49658 9.97943H6.49756L10.1558 7.53314V3.59955H10.1548L3.54248 8.00385L3.54443 8.0058ZM11.8442 3.59955L11.8452 3.60052H11.8472V7.53314L15.5054 9.97943H15.5063L18.4595 8.00482V8.00385L18.4585 8.00287L11.8481 3.60052V3.59955L11.8472 3.59857H11.8452V3.59955H11.8442ZM1.25049 7.664C1.25356 7.65694 1.25659 7.6496 1.26025 7.64349C1.27004 7.62392 1.27977 7.60396 1.28955 7.58685L1.31396 7.54779C1.33359 7.5159 1.35391 7.48685 1.37842 7.4599C1.39063 7.44281 1.40474 7.42772 1.41943 7.41302C1.42557 7.40812 1.43152 7.40289 1.43701 7.3974C1.44252 7.39189 1.44753 7.38567 1.45361 7.3808L1.50049 7.34174L1.53955 7.31244C1.54206 7.31118 1.54492 7.30939 1.54736 7.30756L1.5542 7.30267H1.55518L10.5337 1.32416C10.6029 1.27794 10.6785 1.24257 10.7573 1.21869C10.8361 1.1948 10.9182 1.18256 11.0015 1.18256C11.0847 1.18256 11.1668 1.19478 11.2456 1.21869C11.3243 1.24257 11.4001 1.27797 11.4692 1.32416L20.4429 7.29779C20.4453 7.29899 20.4482 7.30082 20.4507 7.30267C20.453 7.30439 20.4552 7.30633 20.4575 7.30756L20.4976 7.33685L20.5435 7.37592C20.5557 7.38569 20.5679 7.39602 20.5776 7.40814C20.5924 7.42287 20.6074 7.44029 20.6196 7.45502C20.6417 7.48446 20.6645 7.51347 20.6841 7.54291C20.6938 7.55512 20.7012 7.56974 20.7085 7.58197C20.7183 7.60158 20.728 7.61901 20.7378 7.63861C20.7452 7.65334 20.7524 7.66587 20.7573 7.6806C20.7671 7.70023 20.7724 7.7225 20.7798 7.74213H20.7788L20.7915 7.78412C20.7987 7.80835 20.8013 7.83011 20.8062 7.85443L20.814 7.89154L20.8286 8.00189V13.9853C20.8286 14.022 20.8257 14.059 20.8208 14.0956L20.814 14.1328C20.8091 14.1573 20.8067 14.182 20.7993 14.204C20.7969 14.2188 20.7915 14.2338 20.7866 14.246C20.783 14.2557 20.7795 14.266 20.7759 14.2763C20.7722 14.2867 20.7678 14.2977 20.7642 14.3076C20.7606 14.3148 20.7574 14.3222 20.7544 14.329C20.7514 14.336 20.7482 14.3425 20.7446 14.3486C20.7348 14.3682 20.7252 14.3856 20.7153 14.4052C20.7117 14.4125 20.7079 14.4193 20.7036 14.4257C20.6994 14.4321 20.6946 14.4382 20.6909 14.4443L20.6538 14.496L20.6245 14.5331L20.5835 14.579C20.5773 14.584 20.5714 14.5901 20.5659 14.5956C20.5604 14.6012 20.5544 14.6064 20.5483 14.6113C20.5338 14.6234 20.5194 14.6382 20.5024 14.6503C20.4877 14.6601 20.4747 14.6698 20.4624 14.6796C20.46 14.6809 20.458 14.6837 20.4556 14.6855C20.4531 14.6873 20.4501 14.6882 20.4478 14.6894V14.6904L11.4712 20.6689L11.3608 20.7314C11.323 20.7492 11.2841 20.7635 11.2446 20.7753C11.1653 20.799 11.0836 20.8115 11.0024 20.8115C10.9608 20.8115 10.9194 20.8077 10.8784 20.8017C10.7965 20.7896 10.7167 20.7657 10.6421 20.7304L10.5337 20.6689L1.55713 14.6904L1.55029 14.6855L1.50342 14.6503C1.48869 14.6381 1.47127 14.626 1.45654 14.6113C1.4444 14.6016 1.43213 14.5921 1.42236 14.58V14.579L1.38037 14.5331L1.35107 14.496C1.33789 14.4807 1.32843 14.4655 1.31787 14.4501C1.31661 14.4483 1.31527 14.4461 1.31396 14.4443C1.30428 14.4321 1.2969 14.4175 1.28955 14.4052C1.27733 14.3856 1.27007 14.3682 1.26025 14.3486C1.25299 14.3341 1.24561 14.3221 1.24072 14.3076L1.21826 14.246L1.2124 14.2245C1.2106 14.2179 1.20895 14.2113 1.20654 14.204L1.19189 14.1328L1.18408 14.0956C1.17922 14.059 1.17725 14.0219 1.17725 13.9853V8.00677C1.17725 7.97001 1.17918 7.93319 1.18408 7.89642L1.19189 7.85931C1.19678 7.8349 1.20166 7.81 1.20654 7.78802L1.21826 7.74701L1.22998 7.71576C1.23361 7.70548 1.2371 7.69516 1.24072 7.68549L1.25049 7.664Z" fill="#2188FF" stroke="#2188FF" stroke-width="0.00111607"/>
</svg>
