<svg width="14" height="14" viewBox="0 0 14 14" fill="none" xmlns="http://www.w3.org/2000/svg">
<path d="M4.34375 6.37402H9.6875C9.69375 6.37402 9.70156 6.37402 9.70781 6.37246C9.77656 6.36152 9.82188 6.29746 9.81094 6.22871L9.18281 2.35371C9.17344 2.29277 9.12031 2.24902 9.05938 2.24902H4.97188C4.91094 2.24902 4.85781 2.29277 4.84844 2.35371L4.22031 6.22871C4.21875 6.23496 4.21875 6.24277 4.21875 6.24902C4.21875 6.31777 4.275 6.37402 4.34375 6.37402ZM5.76875 3.31152H8.26094L8.58438 5.31152H5.44375L5.76875 3.31152ZM5.80781 7.72871C5.79844 7.66777 5.74531 7.62402 5.68438 7.62402H1.59688C1.53594 7.62402 1.48281 7.66777 1.47344 7.72871L0.845312 11.6037C0.84375 11.61 0.84375 11.6178 0.84375 11.624C0.84375 11.6928 0.9 11.749 0.96875 11.749H6.3125C6.31875 11.749 6.32656 11.749 6.33281 11.7475C6.40156 11.7365 6.44688 11.6725 6.43594 11.6037L5.80781 7.72871ZM2.07031 10.6865L2.39375 8.68652H4.88594L5.20938 10.6865H2.07031ZM13.1547 11.6037L12.5266 7.72871C12.5172 7.66777 12.4641 7.62402 12.4031 7.62402H8.31563C8.25469 7.62402 8.20156 7.66777 8.19219 7.72871L7.56406 11.6037C7.5625 11.61 7.5625 11.6178 7.5625 11.624C7.5625 11.6928 7.61875 11.749 7.6875 11.749H13.0313C13.0375 11.749 13.0453 11.749 13.0516 11.7475C13.1188 11.7365 13.1656 11.6725 13.1547 11.6037ZM8.78906 10.6865L9.1125 8.68652H11.6047L11.9281 10.6865H8.78906Z" fill="white"/>
</svg>
